PathFileType	4	(X/Y/Z)	C:\Users\°ÂÌØÂü\Desktop\20210112\bx_y_10_902-Unnamed.trc
DataRate	CameraRate	NumFrames	NumMarkers	Units	OrigDataRate	OrigDataStartFrame	OrigNumFrames
50.00	50.00	       6	0	mm	50.00	388	       516
Frame#	Time	
		

388	7.740	-713.14276	206.79118	536.93341	-703.18799	278.92526	882.47174	-722.99310	72.74727	219.76570	-646.80908	-11.87621	807.09418	-773.17865	249.86700	644.14697	-677.53357	52.78653	160.83336	-770.40363	247.51785	577.17871	-804.66077	256.91302	500.25314	-535.92590	94.07275	1383.15295	-563.56519	276.90289	1512.96570	-664.20740	-69.84431	160.05292	-716.67426	155.47101	219.43329	-774.24738	227.24313	203.44510	-622.99994	-80.62853	157.08853	-882.59796	296.23630	144.69611	-705.99799	13.28139	524.47083	-604.59924	19.08897	168.01854	-561.96753	-39.52261	163.25616	-678.06683	175.05165	160.40707	-596.87970	222.76884	174.07472	-665.87115	299.25488	159.78096	-628.08160	306.68747	161.46648	-562.74725	260.18723	165.32751	-528.32361	303.94595	146.57578	-544.14374	101.16824	1816.88013	-743.30267	276.57739	753.59564	-750.80084	-31.41419	619.82819	-518.01392	-72.59109	143.04300	-561.80847	-78.26296	1510.25330				-771.64972	-10.42712	205.33575	-797.85272	49.56304	172.89008	-799.26715	177.28728	182.16776	-798.90112	-39.05442	485.19043	-876.03320	-78.59757	141.50241	-731.54614	144.38867	575.54218	-732.86066	75.52242	574.93481	-760.06140	-29.08793	567.89819	-646.30267	212.61880	1064.04443	-714.48529	-70.68957	875.85522	-852.67450	92.55487	1069.20911	-644.34619	215.03152	820.30109	
389	7.760	-710.53094	206.67076	536.87439	-698.82245	278.69299	882.28442	-723.04309	72.59368	219.41496	-643.06293	-12.02333	806.68927	-770.15778	249.51314	644.49017	-677.74969	52.68434	160.50789	-767.63110	247.31129	577.84680	-802.48047	256.80060	500.86203	-538.57233	93.85398	1388.07654	-569.84064	277.39908	1517.08252	-664.20807	-70.13075	160.32002	-716.40491	155.63499	219.16142	-773.99438	226.99168	203.28470	-622.99994	-80.62853	157.08853	-882.62701	296.24408	144.67265	-703.61725	13.21912	524.50275	-604.30573	18.96803	168.13875	-561.71338	-39.62162	163.09697	-677.97607	175.03081	159.98428	-596.76813	222.76619	174.03647	-665.73865	299.14999	159.92931	-627.99445	306.66534	161.41815	-562.64874	260.26746	165.37625	-528.01831	303.68332	146.73222	-554.07990	101.82397	1821.60034	-739.24780	276.19879	753.43976	-747.53986	-31.83787	620.08466	-518.12122	-72.43181	142.95534	-568.57709	-78.11830	1514.91748				-771.41144	-10.57816	205.46892	-797.84192	49.70449	173.02477	-799.05560	177.14420	182.22208	-796.78125	-38.80551	485.72668	-876.02838	-78.54763	141.55200	-728.69128	144.00081	576.15692	-730.51263	75.42126	574.98889	-757.99695	-28.56261	567.57166	-641.67114	212.89342	1065.34314				-848.40149	92.69749	1068.25195	-640.04413	214.62904	819.35773	
390	7.780	-708.15057	206.74968	536.95715	-694.99292	278.34299	881.92065	-722.85693	72.47315	219.29964	-639.08295	-11.76442	806.29053	-766.30103	249.39595	644.82648	-677.66248	52.70233	160.45206	-764.81134	247.12166	577.78430	-800.54285	256.92935	501.26932	-541.64569	94.86361	1393.01721	-576.97064	278.45511	1520.47974	-664.08069	-70.05698	160.31758	-716.30042	155.55948	219.01311	-773.72717	226.98111	203.32372	-622.96521	-80.57077	157.16502	-882.70197	296.12567	144.55602	-701.39417	13.50593	524.59113	-604.28302	18.91940	168.22311	-561.87958	-39.68988	163.08156	-677.86212	174.79411	160.22011	-596.78912	222.38806	173.68124	-666.02844	299.45050	159.90178	-627.98816	306.60406	161.48947	-562.64874	260.26746	165.37625	-528.31171	303.81503	146.69496	-563.16608	102.79715	1826.34692	-736.44794	275.65762	754.16656	-744.80518	-31.77065	620.03363	-518.11121	-72.43433	143.08212	-575.64374	-77.85632	1519.36353	-643.92480	-10.15205	1049.20911	-771.19244	-10.53539	205.66797	-797.70172	49.67204	172.90398	-798.85913	176.65170	182.63933	-794.56012	-38.75418	485.79221	-875.64148	-78.27641	140.85002	-726.06738	144.04221	575.80823	-727.86719	75.37788	575.34338	-755.49652	-29.03893	567.88629	-637.97913	213.13516	1066.08252	-706.06879	-69.97868	875.23389	-844.25354	92.23379	1067.69104	-636.17706	214.47897	819.48016	
391	7.800	-705.52338	206.20987	537.30475	-690.20679	278.32101	881.87451	-722.79114	72.77185	218.94713	-634.84766	-11.53953	805.87640	-763.29871	249.40860	645.62994	-677.55084	52.50068	160.36551	-762.51953	246.83975	578.31989	-798.46411	256.85611	501.65567	-544.69946	95.84308	1396.86267	-583.47437	279.38980	1524.62292	-664.32343	-69.75687	160.49591	-716.18463	155.38605	218.77238	-773.58429	226.79532	203.29135	-622.92242	-80.62173	157.20224	-882.66138	296.22351	144.66956	-699.23102	13.49351	524.28149	-604.43048	18.97864	168.08430	-561.68774	-39.66659	163.19083	-678.00555	175.21857	159.68864	-596.91772	222.43843	173.65691	-665.86865	299.14154	159.99464	-628.25635	306.59042	161.43970	-562.52234	260.15216	165.51871	-528.25897	303.96262	146.55753	-572.00586	103.52657	1830.13049	-732.31726	274.44485	754.11578	-741.60645	-32.18191	620.36298	-517.97534	-72.87410	143.12468	-582.18182	-77.57373	1523.63513	-639.49182	-10.18455	1050.09424	-771.13586	-10.42884	205.74171	-797.25641	49.96704	172.90005	-798.57379	176.39842	182.61209	-792.66882	-38.93967	486.36456	-875.71826	-78.43445	140.98665	-723.22192	143.78642	575.74060	-725.31427	75.45655	574.81482	-752.78381	-28.97029	567.78033	-633.12799	214.26494	1067.25098	-701.76196	-70.11829	875.04944	-840.27899	92.53486	1067.08069	-632.08832	214.62363	819.85461	-743.64154	-51.58587	722.35730	
392	7.820	-703.51892	206.27370	536.90869	-686.10846	278.54886	882.09222	-722.34894	72.71481	218.10878	-630.43030	-11.83993	805.68738	-759.59106	249.47153	645.93359	-677.63025	52.68468	160.11070	-759.80878	247.04698	578.78516	-796.27368	256.45462	502.23987	-547.91559	96.31803	1401.00647	-589.97083	280.25992	1527.40894	-664.23267	-70.02563	160.87347	-716.10077	155.15552	218.74121	-773.49335	226.73692	203.79681	-622.92548	-80.56242	157.24826	-882.53766	296.18567	144.65939	-697.58032	13.35266	523.66046	-604.40564	18.96786	168.12347	-561.55475	-39.81506	163.16119	-678.25098	174.16815	159.69664	-596.46173	222.45319	173.61768	-665.94080	299.25226	159.98689	-628.15344	306.57394	161.39459	-562.49915	260.36868	165.57826	-528.17621	304.02719	146.72752	-580.68073	104.33059	1833.64368	-728.53723	273.95517	754.47668	-738.77673	-32.25172	620.72821	-518.10138	-72.51368	143.04778	-588.97180	-77.05991	1527.07019	-635.06647	-10.27495	1050.44604	-770.72711	-10.43069	205.95757	-797.28912	49.96252	172.97745	-798.57837	176.30986	182.70499	-790.64410	-38.74720	486.37527	-875.61151	-78.75879	141.32382	-720.48163	143.69112	575.48810	-722.72534	75.54945	575.21600	-750.16455	-28.99244	568.09149	-629.20758	213.78799	1067.63770	-697.77985	-69.81893	874.57544	-836.41193	92.86714	1066.82715	-628.25159	214.60785	819.49023	-740.25055	-51.27356	722.48309	
393	7.840	-701.62604	206.13863	536.40088	-682.03308	278.63535	881.57666	-721.97516	72.62434	217.91069	-626.31714	-11.36703	805.36053	-756.15808	249.91518	646.68073	-677.51898	52.71695	160.02533	-757.11053	246.69804	578.46387	-794.34344	256.35516	502.81989	-551.06097	97.21639	1404.71753	-596.51361	281.02258	1530.08765	-664.15509	-69.82269	160.75877	-716.07684	155.22375	218.64517	-773.49573	226.65843	203.92235	-622.82971	-80.71266	157.29143	-882.51044	296.12030	144.67557	-695.02856	13.23593	523.25793	-604.35504	18.97497	168.04227	-561.83008	-39.49448	163.38597	-677.81134	174.39255	159.14636	-596.56311	222.34897	173.68114	-665.71545	299.17584	160.10934	-628.18433	306.59814	161.38017	-562.56244	260.39465	165.65063	-528.39661	304.42844	146.85262	-588.85931	105.16703	1836.77148	-724.81964	273.91324	753.98553	-735.74677	-32.10793	620.05695	-517.99835	-72.61157	143.16501	-594.83301	-76.65900	1530.00037	-630.88379	-10.26335	1050.75391	-770.12756	-10.06083	205.86516	-797.05908	49.91657	172.95987	-798.40356	176.72664	182.35127	-788.43170	-38.43337	486.71979	-876.03320	-78.59757	141.50241	-717.92529	143.69165	575.48364	-720.04871	75.29909	575.23016	-747.55054	-29.27259	568.00409	-625.11505	214.74399	1068.03259	-693.68951	-69.66415	874.39362	-832.77808	92.94505	1066.21912	-624.05701	214.24792	818.97644	
